<?xml version="1.0" encoding="UTF-8"?>
<svg id="Layer_2" data-name="Layer 2" xmlns="http://www.w3.org/2000/svg" xmlns:xlink="http://www.w3.org/1999/xlink" viewBox="0 0 936.32 998.5">
  <defs>
    <style>
      .cls-1 {
        fill: #fff;
      }

      .cls-2 {
        fill: url(#Gradiente_sem_nome_99);
      }

      .cls-3 {
        fill: url(#Gradiente_sem_nome_99-2);
      }
    </style>
    <linearGradient id="Gradiente_sem_nome_99" data-name="Gradiente sem nome 99" x1="468.16" y1="76.42" x2="468.16" y2="985.92" gradientUnits="userSpaceOnUse">
      <stop offset="0" stop-color="#a4266a"/>
      <stop offset=".5" stop-color="#f0217e"/>
      <stop offset="1" stop-color="#ff9797"/>
    </linearGradient>
    <linearGradient id="Gradiente_sem_nome_99-2" data-name="Gradiente sem nome 99" x1="468.16" y1="-6.85" x2="468.16" y2="864.95" xlink:href="#Gradiente_sem_nome_99"/>
  </defs>
  <path class="cls-2" d="M936.32,530.34c0,258.56-209.6,468.16-468.16,468.16S0,788.9,0,530.34C0,330.99,124.59,160.74,300.17,93.22c12.83-4.93,27.09,2.42,30.63,15.7h0c3.06,11.48-3.06,23.37-14.13,27.63C158.14,197.57,45.77,351.55,46.34,531.72c.75,234.67,191.46,422.75,426.12,420.41,230.98-2.31,417.52-190.26,417.52-421.79,0-179.57-112.2-332.92-270.31-393.79-11.08-4.27-17.21-16.15-14.15-27.63h0c3.54-13.28,17.81-20.63,30.63-15.7,175.57,67.52,300.17,237.77,300.17,437.12Z"/>
  <path class="cls-3" d="M797.19,530.34c0,181.72-147.31,329.03-329.03,329.03s-329.03-147.31-329.03-329.03c0-156.81,109.69-288,256.52-321.02V21.5c0-11.87,9.63-21.5,21.5-21.5,5.94,0,11.31,2.41,15.2,6.3s6.3,9.27,6.3,15.2v181.1c9.72-.86,19.57-1.3,29.51-1.3s19.79.44,29.51,1.3V21.5c0-5.93,2.41-11.31,6.3-15.2s9.27-6.3,15.2-6.3c11.87,0,21.5,9.63,21.5,21.5v187.82c146.83,33.02,256.52,164.21,256.52,321.02Z"/>
  <path class="cls-1" d="M468.16,573.28c-6.07,0-11.57-2.46-15.56-6.44-3.98-3.98-6.44-9.48-6.44-15.56v-89.48c0-8.38-6.79-15.17-15.17-15.17h0c-8.38,0-15.17,6.79-15.17,15.17v96.48c0,6.08-2.45,11.58-6.43,15.56-3.99,3.98-9.49,6.44-15.57,6.44-12.14,0-22-9.85-22-22v-133.5c3.07-35.07,39.87-70.97,66.68-79.15h.15V21.5c0-3.56-.87-6.92-2.41-9.87h63.84c-1.54,2.95-2.41,6.31-2.41,9.87v324.13s.15,0,.15,0c26.81,8.18,63.61,44.08,66.68,79.15v133.5c0,12.15-9.86,22-22,22-6.08,0-11.58-2.46-15.57-6.44-3.98-3.98-6.43-9.48-6.43-15.56v-96.48c0-8.38-6.79-15.17-15.17-15.17h0c-8.38,0-15.17,6.79-15.17,15.17v89.48c0,6.08-2.46,11.58-6.44,15.56-3.99,3.98-9.49,6.44-15.56,6.44Z"/>
</svg>